<svg viewBox="0 0 400 300" fill="none" xmlns="http://www.w3.org/2000/svg"><path d="M179.256 255.418 60 157.984l32.129-39.376 83.342 68.123 129.16-131.657 36.236 35.592-161.611 164.752Z" stroke="#DEDFEA" stroke-width=".805" stroke-miterlimit="10"/><path d="M221.127 42.271c-.241.403-.644.725-1.208.725-2.013.16-3.704 1.369-4.992 3.784-1.047 1.933-1.369 3.865-1.369 3.865-.161.806-.886 1.289-1.691 1.208-.805-.16-1.288-.885-1.208-1.69 0-.081.403-2.336 1.611-4.671 1.771-3.302 4.267-5.154 7.408-5.395.805-.08 1.53.563 1.53 1.369.161.241.08.563-.081.805Z" fill="#FFC7DE" stroke="#000" stroke-width=".805" stroke-miterlimit="10"/><path d="M219.919 38.728c-.161.241-.322.483-.563.564-.242.08-4.751 2.657-6.764 10.387a1.511 1.511 0 0 1-1.772 1.047 1.511 1.511 0 0 1-1.047-1.771c2.416-9.02 7.972-12.08 8.214-12.24.724-.403 1.61-.08 2.013.644.161.483.161.966-.081 1.369Z" fill="#FFC7DE" stroke="#000" stroke-width=".805" stroke-miterlimit="10"/><path d="M214.041 42.916s-.966 2.979-.081 2.979l-.644 1.288s-.161-2.093.725-4.267ZM213.719 46.378s-.403 1.288.644 1.852l-.563 1.69s-.403-1.61-.484-2.737l.403-.805Z" fill="#000"/><path d="M218.067 48.39a1.598 1.598 0 0 0-1.933.887l-1.449 3.301c-.886-2.335-1.611-4.992-1.45-6.925.564-3.543 1.047-6.844 1.369-8.777.161-.886-.483-1.691-1.288-1.852-.886-.161-1.772.483-1.852 1.369-.483 2.98-1.45 8.938-1.933 9.824-1.288 2.496-12.884 31.646-12.884 31.646l-15.702 4.509 4.027 19.487 21.338-6.281c1.611-.483 2.819-1.772 3.302-3.382l9.582-41.792c.322-.805-.241-1.772-1.127-2.013Z" fill="#FFC7DE" stroke="#000" stroke-width=".805" stroke-miterlimit="10" stroke-linecap="round" stroke-linejoin="round"/><path d="m214.685 52.578-2.335 3.14" stroke="#000" stroke-width=".805" stroke-miterlimit="10" stroke-linecap="round" stroke-linejoin="round"/><path d="m293.841 162.333-24.48 19.486 16.427 13.931 23.835-18.762-15.782-14.655Z" fill="#FFC7DE" stroke="#000" stroke-width=".805" stroke-miterlimit="10"/><path d="m304.067 181.255 17.473 4.751c1.128.403 2.416.161 3.302-.644l.403-.322c.322-.322.402-.886.08-1.208l-23.915-27.136a1.05 1.05 0 0 0-1.53-.081l-8.939 8.052 13.126 16.588Z" fill="#B6BBE2" stroke="#000" stroke-width=".805" stroke-miterlimit="10"/><path d="m324.761 185.362-25.204-28.586" stroke="#000" stroke-width=".403" stroke-miterlimit="10"/><path d="M234.093 53.223c-.886 2.335 4.589 4.59 5.636 1.771 1.047-2.818 2.577-5.878 3.463-8.535.402-1.127.08-2.335-.967-2.899a2.181 2.181 0 0 0-2.898.805l-5.234 8.858Z" fill="#FFC7DE" stroke="#000" stroke-width=".805" stroke-miterlimit="10"/><path d="M234.496 50.727c-.483 2.093 4.509 3.462 5.153.966.644-2.577 1.611-5.395 2.174-7.81.242-1.048-.161-2.095-1.127-2.417-.966-.402-2.013.081-2.496 1.047l-3.704 8.214Z" fill="#FFC7DE" stroke="#000" stroke-width=".805" stroke-miterlimit="10"/><path d="m239.568 51.612-.483 13.126-7.408 21.741-15.622 7.167a4.982 4.982 0 0 1-.242-4.751L233.69 49.76c.402-.805 1.369-1.207 2.174-.805" fill="#FFC7DE"/><path d="m239.568 51.612-.483 13.126-7.408 21.741-15.622 7.167a4.982 4.982 0 0 1-.242-4.751L233.69 49.76c.402-.805 1.369-1.207 2.174-.805" stroke="#000" stroke-width=".805" stroke-miterlimit="10" stroke-linecap="round" stroke-linejoin="round"/><path d="m235.462 59.423-.241-1.61c-.161-1.45 0-2.899.483-4.268l.966-2.577c.242-.805-.081-1.61-.805-1.932" fill="#FFC7DE"/><path d="m235.462 59.423-.241-1.61c-.161-1.45 0-2.899.483-4.268l.966-2.577c.242-.805-.081-1.61-.805-1.932M126.432 124.083l-11.354-12.642" stroke="#000" stroke-width=".805" stroke-miterlimit="10" stroke-linecap="round" stroke-linejoin="round"/><path d="m115.077 111.441-6.441 6.12s-6.442 6.12-9.1 9.18c-2.254 2.576.484 3.945 1.53 3.462 0 0-2.496 2.335-1.127 4.187.966 1.369 2.818 1.289 3.946.403 0 0-1.289 1.53.322 3.06 1.208 1.127 2.818.644 4.026-.322 2.335-1.933 7.891-6.845 7.891-6.845s-.885 3.946-1.369 6.12c-.563 3.06 2.819 4.187 4.188 1.61 1.288-2.415 3.865-11.273 3.865-11.273l3.704-3.14" fill="#FFC7DE"/><path d="m115.077 111.441-6.441 6.12s-6.442 6.12-9.1 9.18c-2.254 2.576.484 3.945 1.53 3.462 0 0-2.496 2.335-1.127 4.187.966 1.369 2.818 1.289 3.946.403 0 0-1.289 1.53.322 3.06 1.208 1.127 2.818.644 4.026-.322 2.335-1.933 7.891-6.845 7.891-6.845s-.885 3.946-1.369 6.12c-.563 3.06 2.819 4.187 4.188 1.61 1.288-2.415 3.865-11.273 3.865-11.273l3.704-3.14M101.066 130.284l7.892-7.489M103.805 134.873l7.972-7.166" stroke="#000" stroke-width=".805" stroke-miterlimit="10" stroke-linecap="round" stroke-linejoin="round"/><path d="M116.045 130.767s-3.704-2.496-1.208-7.489" stroke="#000" stroke-width=".805" stroke-miterlimit="10" stroke-linecap="round" stroke-linejoin="round"/><path d="m126.432 124.083 10.871-9.179 57.977-19.97-11.032-13.69-50.73 16.025a11.847 11.847 0 0 0-3.14 1.691l-15.3 12.481" fill="#FFC7DE"/><path d="m126.432 124.083 10.871-9.179 57.977-19.97-11.032-13.69-50.73 16.025a11.847 11.847 0 0 0-3.14 1.691l-15.3 12.481" stroke="#000" stroke-width=".805" stroke-miterlimit="10" stroke-linecap="round" stroke-linejoin="round"/><path d="m272.583 246.238-17.312-26.17-15.38 15.46 16.829 25.285 15.863-14.575Z" fill="#FFC7DE" stroke="#000" stroke-width=".805" stroke-miterlimit="10"/><path d="m252.935 254.935-6.12 16.99a3.401 3.401 0 0 0 .403 3.382l.322.403c.322.403.805.403 1.208.161l28.988-21.661c.484-.402.564-1.047.161-1.53l-7.327-9.502-17.635 11.757Z" fill="#B6BBE2" stroke="#000" stroke-width=".805" stroke-miterlimit="10"/><path d="m247.217 275.307 30.438-22.949" stroke="#000" stroke-width=".403" stroke-miterlimit="10"/><path d="m232.32 165.473 29.311 42.516c4.026 3.624 10.146 3.704 14.172.161l26.331-22.063-14.735-18.923-18.038 14.655-14.413-26.895-22.628 10.549Z" fill="#DEDFEA" stroke="#000" stroke-width=".805" stroke-miterlimit="10" stroke-linecap="round" stroke-linejoin="round"/><path d="M248.668 160.158v45.899l21.419 32.048-22.063 14.575s-22.95-34.545-23.674-37.605v-50.086l24.318-4.831Z" fill="#DEDFEA" stroke="#000" stroke-width=".805" stroke-miterlimit="10" stroke-linecap="round" stroke-linejoin="round"/><path d="m96.717 153.958-14.494 35.753 1.771.724c1.852.725 3.946.484 5.637-.644l14.977-10.307.322-7.489c.161-3.784 2.013-7.408 4.993-9.743l2.496-2.013-15.702-6.281Z" fill="#B6BBE2" stroke="#000" stroke-width=".805" stroke-miterlimit="10" stroke-linecap="round" stroke-linejoin="round"/><path d="m98.408 154.683-14.494 35.752" stroke="#000" stroke-width=".805" stroke-miterlimit="10" stroke-linecap="round" stroke-linejoin="round"/><path d="m107.909 158.467-13.528 6.442 4.026-10.226 9.502 3.784Z" fill="#fff" stroke="#000" stroke-width=".805" stroke-miterlimit="10" stroke-linecap="round" stroke-linejoin="round"/><path d="m104.528 179.484 20.614 8.375 7.811-19.246-20.614-8.374-3.06 2.255c-3.221 2.335-5.073 6.119-4.912 10.065l.161 6.925Z" fill="#FFC7DE" stroke="#000" stroke-width=".805" stroke-miterlimit="10" stroke-linecap="round" stroke-linejoin="round"/><path d="m179.898 146.389-9.421 45.738c-2.094 7.649-10.307 11.998-17.796 9.421l-47.911-16.749 9.34-24.318 33.015 12.722 6.361-34.061 26.412 7.247Z" fill="#DEDFEA" stroke="#000" stroke-width=".805" stroke-miterlimit="10" stroke-linecap="round" stroke-linejoin="round"/><path d="m91.727 186.087 3.14 38.49 1.852-.161c2.013-.161 3.785-1.288 4.751-3.06l8.777-15.943-3.14-6.764c-1.611-3.463-1.53-7.489.08-10.951l1.289-2.98-16.75 1.369Z" fill="#B6BBE2" stroke="#000" stroke-width=".805" stroke-miterlimit="10" stroke-linecap="round" stroke-linejoin="round"/><path d="m93.66 185.926 3.14 38.49" stroke="#000" stroke-width=".805" stroke-miterlimit="10" stroke-linecap="round" stroke-linejoin="round"/><path d="m103.806 185.121-9.18 11.756-.966-10.951 10.146-.805Z" fill="#fff" stroke="#000" stroke-width=".805" stroke-miterlimit="10" stroke-linecap="round" stroke-linejoin="round"/><path d="m110.246 205.332 22.144-1.852-1.691-20.694-22.144 1.852-1.691 3.382c-1.772 3.543-1.772 7.73.161 11.273l3.221 6.039Z" fill="#FFC7DE" stroke="#000" stroke-width=".805" stroke-miterlimit="10" stroke-linecap="round" stroke-linejoin="round"/><path d="m174.585 143.731 1.53 42.678c.242 7.972-5.476 14.897-13.447 15.944l-49.523 6.844-2.979-25.123 39.135-4.831-1.289-35.35 26.573-.162Z" fill="#DEDFEA" stroke="#000" stroke-width=".805" stroke-miterlimit="10" stroke-linecap="round" stroke-linejoin="round"/><path d="m296.014 111.522 4.107-6.764s4.026-6.764 5.556-10.066c1.288-2.737-1.369-3.301-2.094-2.657 0 0 1.53-2.577-.08-3.865-1.127-.886-2.657-.483-3.463.564 0 0 .725-1.691-1.046-2.577-1.289-.644-2.577.08-3.302 1.208-1.53 2.174-5.153 7.73-5.153 7.73s-.484-2.899-.645-4.59c-.402-2.738-3.784-3.14-3.945.242-.081 2.657-.322 8.857-.322 8.857l-2.416 3.624 12.803 8.294Z" fill="#FFC7DE" stroke="#000" stroke-width=".805" stroke-miterlimit="10" stroke-linecap="round" stroke-linejoin="round"/><path d="m303.582 92.115-4.992 8.214M300.122 88.814l-5.073 8.053M290.619 95.256s3.785 1.208 2.818 6.12" stroke="#000" stroke-width=".805" stroke-miterlimit="10" stroke-linecap="round" stroke-linejoin="round"/><path d="M173.297 84.466c6.804 0 12.32-5.516 12.32-12.32s-5.516-12.32-12.32-12.32c-6.805 0-12.32 5.516-12.32 12.32s5.515 12.32 12.32 12.32Z" fill="#FFC7DE" stroke="#000" stroke-width=".805" stroke-miterlimit="10"/><path d="M168.384 60.712c-2.255.724-9.341 5.395-7.006 14.816.966 3.946 4.107 5.878 4.107 5.878 4.751-1.61 4.67-8.455 5.073-8.374 2.577.402 5.073-1.772 6.683-5.154 1.691-3.623.806-7.247.806-7.247-1.45-.403-4.349-1.772-9.663.08Z" fill="#000"/><path d="M169.189 77.38a3.463 3.463 0 1 0 0-6.926 3.463 3.463 0 0 0 0 6.926Z" fill="#FFC7DE"/><path d="M182.476 64.174s-4.51-.805-6.201-2.254l1.45-1.289c-.081 0 3.543 1.53 4.751 3.543Z" fill="#000"/><path d="m167.498 73.434 2.818.484" stroke="#000" stroke-width=".805" stroke-miterlimit="10" stroke-linecap="round" stroke-linejoin="round"/><path d="m297.06 110.958-14.011-8.697-13.045 20.212-26.492-12.481c-3.301-1.611-6.039-4.268-7.65-7.569l-4.751-9.824 11.918-26.815-14.736-6.683-12.481 27.539a15.446 15.446 0 0 0-.483 11.676l7.65 21.258v52.099l40.986-3.946-4.59-31.565 9.18 4.026c4.751 2.094 10.307.322 13.045-4.026l15.46-25.204Z" fill="#00C7BE" stroke="#000" stroke-width=".805" stroke-miterlimit="10" stroke-linecap="round" stroke-linejoin="round"/><path d="m262.598 102.826 20.453 7.327c3.945 1.369 5.556 6.04 3.382 9.583-2.416 3.945-8.133 4.268-10.871.483l-12.964-17.393Z" fill="#000"/><path d="M191.816 280.3h138.099M171.043 280.3h11.434M214.283 21.497l5.476 10.87M233.207 19l-3.785 14.011M239.006 35.105l9.18-6.12" stroke="#000" stroke-width=".805" stroke-miterlimit="10" stroke-linecap="round" stroke-linejoin="round"/><path d="M250.68 107.576c6.493 0 11.757-5.263 11.757-11.756s-5.264-11.757-11.757-11.757c-6.493 0-11.756 5.264-11.756 11.757 0 6.493 5.263 11.756 11.756 11.756Z" fill="#FFC7DE" stroke="#000" stroke-width=".805" stroke-miterlimit="10"/><path d="M257.846 86.399c1.852 1.207 7.409 7.086 3.141 15.38-1.772 3.462-5.073 4.509-5.073 4.509-4.026-2.577-2.416-8.858-2.738-8.938-2.496-.161-4.348-2.819-4.992-6.281-.725-3.785.885-6.844.885-6.844 1.289-.162 4.268-.725 8.777 2.174Z" fill="#000"/><path d="M254.061 101.698a3.301 3.301 0 1 0 .001-6.603 3.301 3.301 0 0 0-.001 6.603Z" fill="#FFC7DE"/><path d="M243.996 86.398s4.348.323 6.281-.724l-1.047-1.53c0 .08-3.623.644-5.234 2.254Z" fill="#000"/><path d="m255.753 98.316-2.737-.161" stroke="#000" stroke-width=".805" stroke-miterlimit="10" stroke-linecap="round" stroke-linejoin="round"/><path d="m264.209 171.754-15.299.885-.081-1.852-24.559 1.047 37.926-4.026 2.013 3.946Z" fill="#000"/><path d="m138.51 116.836 10.227-2.254-13.528 32.209 46.14 11.918 3.14-54.676 18.521-5.556-6.764-21.097-36.558 10.307c-2.255.644-4.429 1.369-6.684 2.093l-20.533 7.248 6.039 19.808Z" fill="#00C7BE" stroke="#000" stroke-width=".805" stroke-miterlimit="10" stroke-linecap="round" stroke-linejoin="round"/><path d="m184.813 103.55-10.629 2.818 10.226 2.174.403-4.992Z" fill="#000"/><path d="m148.818 114.501 8.938-21.178" stroke="#000" stroke-width=".805" stroke-miterlimit="10" stroke-linecap="round" stroke-linejoin="round"/><path d="m275.723 274.824 15.058-30.116" stroke="#DEDFEA" stroke-width=".805" stroke-miterlimit="10"/><path d="m148.094 150.254.161.886 26.653 7.73.644 7.489 1.933-8.939-29.391-7.166ZM148.255 160.722 146 179.162l3.382.08-1.127-18.52Z" fill="#000"/><path d="M306.968 242.051 287.4 265.806M226.441 258.639l9.019 12.804" stroke="#DEDFEA" stroke-width=".805" stroke-miterlimit="10"/></svg>