<svg viewBox="0 0 400 300" fill="none" xmlns="http://www.w3.org/2000/svg"><path d="M339.808 162.991H290.42v48.451h49.388v-48.451ZM78.819 218.595H60v18.478h18.819v-18.478ZM341 19h-18.818v18.478H341V19Z" stroke="#DEDFEA" stroke-width=".852" stroke-miterlimit="10"/><path d="M326.524 108.495h-171.92v89.749h171.92v-89.749Z" stroke="#DEDFEA" stroke-width=".852" stroke-miterlimit="10"/><path d="M243.246 59.276H90.91v143.225h152.336V59.276Z" stroke="#DEDFEA" stroke-width=".852" stroke-miterlimit="10"/><path d="M256.444 100.064H79.67v89.75h176.774v-89.75Z" stroke="#DEDFEA" stroke-width=".852" stroke-miterlimit="10"/><path d="M275.605 43.353H126.846v215.774H275.69V44.546c0-.341 0-.767-.085-1.193Z" fill="#fff" stroke="#000" stroke-width=".852" stroke-miterlimit="10"/><path d="M126.846 260.149c0 11.325 9.196 20.522 20.521 20.522h107.802c11.325 0 20.521-9.197 20.521-20.522v-1.022H126.846v1.022ZM255.168 24.11H147.366c-10.899 0-19.84 8.515-20.436 19.329h148.759c-.681-10.814-9.622-19.33-20.521-19.33Z" fill="#DEDFEA" stroke="#000" stroke-width=".852" stroke-miterlimit="10" stroke-linecap="round" stroke-linejoin="round"/><path d="M140.469 209.143H261.98M140.469 218.765h34.656M172.486 269.09h61.905" stroke="#000" stroke-width=".852" stroke-miterlimit="10"/><path d="M199.223 35.775a1.873 1.873 0 1 0 0-3.746 1.873 1.873 0 0 0 0 3.746Z" fill="#000"/><path d="M126.76 63.705h-2.981v24.012h2.981V63.705ZM126.76 95.126h-2.981v24.012h2.981V95.126Z" fill="#DEDFEA" stroke="#000" stroke-width=".852" stroke-miterlimit="10" stroke-linecap="round" stroke-linejoin="round"/><path d="M87.164 280.67H301.15M320.562 280.67h17.201" stroke="#000" stroke-width=".852" stroke-miterlimit="10"/><path d="M263.256 54.253H137.828v136.072h125.428V54.253Z" fill="#DEDFEA" stroke="#000" stroke-width=".852" stroke-miterlimit="10" stroke-linecap="round" stroke-linejoin="round"/><path d="M199.733 159.5c20.645 0 37.382-16.737 37.382-37.382s-16.737-37.381-37.382-37.381-37.381 16.736-37.381 37.381 16.736 37.382 37.381 37.382ZM226.132 95.636l-52.794 52.879" stroke="#fff" stroke-width="8.515" stroke-miterlimit="10"/><path d="M195.305 233.241h-57.477v13.114h57.477v-13.114Z" fill="#B6BBE2" stroke="#000" stroke-width=".852" stroke-miterlimit="10"/><path d="M237.538 107.557a2.523 2.523 0 0 1-2.299.682c-3.406-.682-6.727.596-9.877 3.831-2.555 2.725-4.087 5.706-4.087 5.706-.597 1.277-2.044 1.788-3.321 1.192-1.278-.596-1.789-2.044-1.193-3.321.086-.17 1.789-3.662 4.854-6.983 4.428-4.598 9.452-6.471 14.561-5.364 1.362.255 2.214 1.618 1.958 2.98-.085.511-.255.937-.596 1.277Z" fill="#000" stroke="#000" stroke-width=".852" stroke-miterlimit="10" stroke-linecap="round" stroke-linejoin="round"/><path d="M237.198 101.171a2.34 2.34 0 0 1-1.277.681c-.426.086-9.026 2.214-15.924 13.88-.681 1.192-2.214 1.533-3.406.852-1.192-.682-1.532-2.214-.851-3.406 8.174-13.71 18.733-16.094 19.159-16.18a2.588 2.588 0 0 1 2.98 1.874c.085.937-.17 1.788-.681 2.299Z" fill="#000" stroke="#000" stroke-width=".852" stroke-miterlimit="10" stroke-linecap="round" stroke-linejoin="round"/><path d="M225.533 105.259s-2.981 4.427-1.533 4.768l-1.703 1.873c.085 0 .766-3.406 3.236-6.641ZM223.403 110.878s-1.192 1.874.255 3.321l-1.703 2.47s.085-2.81.426-4.769l1.022-1.022Z" fill="#000" stroke="#000" stroke-width=".852" stroke-miterlimit="10" stroke-linecap="round" stroke-linejoin="round"/><path d="M229.619 116.158c-1.192-.681-2.639-.426-3.576.596l-3.917 4.683c-.341-4.172-.255-8.941.852-12.091 2.554-5.535 4.938-10.815 6.301-13.71.596-1.362 0-2.98-1.278-3.661-1.362-.681-3.065-.085-3.746 1.362-2.129 4.598-6.557 13.965-7.664 15.157-3.236 3.491-38.573 45.982-38.573 45.982l10.218 33.464c2.81-.085 5.449-1.532 6.982-3.917l35.168-63.948c.936-1.363.596-3.066-.767-3.917Z" fill="#000" stroke="#000" stroke-width=".852" stroke-miterlimit="10" stroke-linecap="round" stroke-linejoin="round"/><path d="m222.126 121.437-4.087 3.832" stroke="#000" stroke-width=".852" stroke-miterlimit="10" stroke-linecap="round" stroke-linejoin="round"/><path d="M236.265 106.791a2.524 2.524 0 0 1-2.299.681c-3.406-.681-6.727.596-9.878 3.832-2.554 2.725-4.087 5.705-4.087 5.705-.596 1.278-2.044 1.788-3.321 1.192-1.277-.596-1.788-2.043-1.192-3.321.085-.17 1.788-3.661 4.854-6.982 4.428-4.598 9.451-6.471 14.561-5.364 1.362.255 2.214 1.617 1.958 2.98-.085.511-.341.937-.596 1.277Z" fill="#FFC7DE" stroke="#000" stroke-width=".852" stroke-miterlimit="10"/><path d="M235.837 100.49c-.341.34-.767.596-1.278.681-.425.085-9.026 2.214-15.923 13.88-.681 1.192-2.214 1.532-3.406.851-1.192-.681-1.533-2.214-.852-3.406 8.175-13.71 18.734-16.093 19.159-16.179a2.589 2.589 0 0 1 2.981 1.874 2.527 2.527 0 0 1-.681 2.299Z" fill="#FFC7DE" stroke="#000" stroke-width=".852" stroke-miterlimit="10"/><path d="M224.259 104.492s-2.98 4.428-1.533 4.769l-1.703 1.873c.086 0 .767-3.406 3.236-6.642ZM222.129 110.112s-1.192 1.873.256 3.321l-1.703 2.469s.085-2.81.425-4.768l1.022-1.022Z" fill="#000"/><path d="M228.346 115.392c-1.192-.682-2.64-.426-3.576.596l-3.917 4.683c-.341-4.172-.256-8.941.851-12.092 2.555-5.534 4.939-10.814 6.301-13.709.596-1.362 0-2.98-1.277-3.661-1.362-.682-3.065-.086-3.747 1.362-2.128 4.598-6.556 13.965-7.663 15.157-3.236 3.491-38.574 45.982-38.574 45.982l10.218 33.464c2.81-.085 5.45-1.533 6.983-3.917l35.167-63.948c.937-1.363.596-3.066-.766-3.917Z" fill="#FFC7DE" stroke="#000" stroke-width=".852" stroke-miterlimit="10" stroke-linecap="round" stroke-linejoin="round"/><path d="m220.852 120.671-4.172 3.832" stroke="#000" stroke-width=".852" stroke-miterlimit="10" stroke-linecap="round" stroke-linejoin="round"/><path d="m163.801 167.163 16.434-18.733 26.056 20.692-16.689 20.862-25.801-22.821Z" fill="#fff" stroke="#000" stroke-width=".852" stroke-miterlimit="10" stroke-linecap="round" stroke-linejoin="round"/><path d="m178.872 154.731-33.124 35.679 43.342-.341-10.218-35.338Z" fill="#fff" stroke="#000" stroke-width=".852" stroke-miterlimit="10" stroke-linecap="round" stroke-linejoin="round"/><path d="m261.639 196.626 28.781-10.814-18.733-43.768-20.947 9.111-3.747-5.79c-.085-.171-.255-.256-.34-.426-16.009-16.945-42.917-17.03-58.925-.085l-8.771 9.877s-.851 11.581 2.47 20.947c3.491 9.623 7.748 14.391 7.748 14.391h12.433c1.192 1.703 28.185 49.218 28.185 49.218l42.405-26.227-10.559-16.434Z" fill="#00C7BE" stroke="#000" stroke-width=".852" stroke-miterlimit="10" stroke-linecap="round" stroke-linejoin="round"/><path d="m272.197 212.975-45.896-69.909" stroke="#000" stroke-width=".852" stroke-miterlimit="10" stroke-linecap="round" stroke-linejoin="round"/><path d="M251.165 251.464c13.827 0 25.035-11.209 25.035-25.035s-11.208-25.034-25.035-25.034c-13.826 0-25.034 11.208-25.034 25.034 0 13.826 11.208 25.035 25.034 25.035ZM298.935 157.626c4.854 12.603 1.107 24.439-8.515 28.185-9.622 3.747-22.309-3.831-26.397-14.731-5.194-13.879-.936-25.715 8.686-29.462s21.373 3.491 26.226 16.008Z" fill="#000" stroke="#000" stroke-width=".852" stroke-miterlimit="10" stroke-linecap="round" stroke-linejoin="round"/><path d="m237.966 242.012-6.982-16.69c-1.874-4.258-1.278-9.281 1.617-12.943a22.549 22.549 0 0 1 8.856-6.727c5.365-2.214 9.963-2.129 13.369-1.533 3.491.682 6.471 2.896 8.26 5.961l5.705 10.218" fill="#FFC7DE"/><path d="m237.966 242.012-6.982-16.69c-1.874-4.258-1.278-9.281 1.617-12.943a22.549 22.549 0 0 1 8.856-6.727c5.365-2.214 9.963-2.129 13.369-1.533 3.491.682 6.471 2.896 8.26 5.961l5.705 10.218" stroke="#000" stroke-width=".852" stroke-miterlimit="10" stroke-linecap="round" stroke-linejoin="round"/><path d="M228.09 280.33v-3.746c0-3.236 1.277-6.301 3.576-8.515l1.959-1.874c2.214-2.129 3.576-4.938 4.002-8.004l1.192-8.345a17.513 17.513 0 0 0-.766-7.834l3.32-15.412a15.493 15.493 0 0 1 15.157-12.262c5.45 0 10.559 2.895 13.284 7.579l7.238 12.176-1.618 46.663-47.344-.426Z" fill="#B6BBE2" stroke="#000" stroke-width=".852" stroke-miterlimit="10"/><path d="M263.768 226.089a15.035 15.035 0 0 1 14.902 12.858l4.172 27.929c.341 2.47.171 4.939-.681 7.238-1.277 3.662-4.683 6.216-8.6 6.216H228.09l10.729-5.705a9.681 9.681 0 0 0 1.958-1.277c3.492-2.64 5.791-6.642 6.131-11.07l1.874-22.31c.681-7.833 7.152-13.879 14.986-13.879Z" fill="#fff" stroke="#000" stroke-width=".852" stroke-miterlimit="10" stroke-linecap="round" stroke-linejoin="round"/><path d="m201.607 190.07-5.109-8.941" stroke="#000" stroke-width=".852" stroke-miterlimit="10" stroke-linecap="round" stroke-linejoin="round"/><path d="m292.719 173.976-6.386 2.384c-8.601 3.236-18.989-.852-22.14-9.367-2.81-7.749-1.703-18.392 6.131-23.927l7.749-4.002 14.646 34.912Z" fill="#FFC7DE" stroke="#000" stroke-width=".852" stroke-miterlimit="10" stroke-linecap="round" stroke-linejoin="round"/><path d="m297.402 130.208-22.224 10.389s-3.236 8.856-1.193 17.115c3.917 16.094 12.603 18.308 12.603 18.308l.511-.171c3.065-1.021 6.471 0 8.515 2.555 4.854 6.046 15.412 15.668 29.037 8.43l-27.249-56.626Z" fill="#B6BBE2" stroke="#000" stroke-width=".852" stroke-miterlimit="10"/><path d="m325.076 186.492-.34.171c-7.664 3.746-16.945.596-20.692-7.068l-14.05-28.525c-3.747-7.664-.596-16.946 7.067-20.692l.341-.171c7.664-3.746 16.945-.596 20.692 7.068l14.05 28.526c3.747 7.663.596 16.86-7.068 20.691Z" fill="#fff" stroke="#000" stroke-width=".852" stroke-miterlimit="10" stroke-linecap="round" stroke-linejoin="round"/><path d="M282.161 274.114H239.5M282.161 262.618h-35.253M280.542 251.123h-32.528M278.669 239.542h-29.718M289.312 148.089l27.59-12.858M294.082 158.648l28.1-13.028M299.957 170.569l28.015-13.028M305.578 181.639l27.504-12.773" stroke="#000" stroke-width=".852" stroke-miterlimit="10" stroke-linecap="round" stroke-linejoin="round"/><path d="m197.52 183.342-3.577 6.557h7.664l-4.087-6.557Z" fill="#000" stroke="#000" stroke-width=".852" stroke-miterlimit="10" stroke-linecap="round" stroke-linejoin="round"/><path d="m168.824 190.24-25.205-.767s.511-7.408 2.299-14.475c2.214-8.856 5.45-18.819 16.009-17.201 12.943 2.044 19.499 32.358 19.499 32.358l-12.602.085Z" fill="#FFC7DE" stroke="#000" stroke-width=".852" stroke-miterlimit="10" stroke-linecap="round" stroke-linejoin="round"/><path d="M140.638 194.753c-1.788-1.107-2.299-3.491-1.192-5.28l2.639-4.087c1.107-1.788 3.492-2.299 5.28-1.192 1.788 1.107 2.299 3.491 1.192 5.279l-2.64 4.088c-1.107 1.788-3.491 2.299-5.279 1.192Z" fill="#000" stroke="#000" stroke-width=".852" stroke-miterlimit="10" stroke-linecap="round" stroke-linejoin="round"/><path d="M149.494 196.456c-2.129-.085-3.832-1.788-3.747-3.917l.171-6.046c.085-2.128 1.788-3.832 3.916-3.746 2.129.085 3.832 1.788 3.747 3.917l-.17 6.045c-.085 2.129-1.873 3.747-3.917 3.747Z" fill="#000" stroke="#000" stroke-width=".852" stroke-miterlimit="10" stroke-linecap="round" stroke-linejoin="round"/><path d="M155.965 196.626c-2.129-.085-3.832-1.788-3.747-3.917l.17-6.045c.085-2.129 1.788-3.832 3.917-3.747 2.129.085 3.832 1.788 3.747 3.917l-.17 6.046c-.086 2.129-1.789 3.832-3.917 3.746Z" fill="#000" stroke="#000" stroke-width=".852" stroke-miterlimit="10" stroke-linecap="round" stroke-linejoin="round"/><path d="m166.1 190.325-.086 2.725c-.085 2.129-1.788 3.832-3.917 3.747-2.128-.085-3.831-1.788-3.746-3.917l.085-2.81" fill="#000"/><path d="m166.1 190.325-.086 2.725c-.085 2.129-1.788 3.832-3.917 3.747-2.128-.085-3.831-1.788-3.746-3.917l.085-2.81" stroke="#000" stroke-width=".852" stroke-miterlimit="10" stroke-linecap="round" stroke-linejoin="round"/><path d="M138.169 192.369c-1.788-1.107-2.299-3.492-1.192-5.28l2.725-4.342c1.107-1.789 3.491-2.3 5.279-1.193 1.788 1.107 2.299 3.492 1.192 5.28l-2.724 4.343c-1.107 1.703-3.492 2.299-5.28 1.192Z" fill="#FFC7DE" stroke="#000" stroke-width=".852" stroke-miterlimit="10" stroke-linecap="round" stroke-linejoin="round"/><path d="M147.707 194.923c-2.129-.341-3.492-2.299-3.151-4.428l.851-5.364c.341-2.129 2.3-3.492 4.428-3.151 2.129.341 3.492 2.299 3.151 4.428l-.852 5.364c-.34 2.044-2.299 3.492-4.427 3.151Z" fill="#FFC7DE" stroke="#000" stroke-width=".852" stroke-miterlimit="10" stroke-linecap="round" stroke-linejoin="round"/><path d="M154.773 195.178c-2.129-.085-3.832-1.788-3.747-3.917l.171-5.449c.085-2.129 1.788-3.832 3.917-3.747 2.129.085 3.832 1.788 3.746 3.917l-.17 5.45c0 2.128-1.788 3.831-3.917 3.746Z" fill="#FFC7DE" stroke="#000" stroke-width=".852" stroke-miterlimit="10" stroke-linecap="round" stroke-linejoin="round"/><path d="M161.244 195.349c-2.129-.085-3.832-1.788-3.747-3.917l.171-5.364c.085-2.129 1.532-3.747 3.916-3.747 4.343 0 6.131 5.705 6.131 7.834l-2.469-.511v1.959c-.085 2.128-1.873 3.831-4.002 3.746Z" fill="#FFC7DE" stroke="#000" stroke-width=".852" stroke-miterlimit="10" stroke-linecap="round" stroke-linejoin="round"/><path d="m168.653 177.893-1.022 12.347" stroke="#000" stroke-width=".852" stroke-miterlimit="10" stroke-linecap="round" stroke-linejoin="round"/><path d="M152.644 65.493h-4.343v4.343h4.343v-4.343ZM187.554 67.282h-32.613v.852h32.613v-.852ZM191.303 67.282h-.852v.851h.852v-.851ZM217.274 68.133h-1.618v-.851h1.618v.851Zm-6.472 0h-1.618v-.851h1.618v.851Zm-6.556 0h-1.618v-.851h1.618v.851Zm-6.472 0h-1.618v-.851h1.618v.851ZM223.062 67.282h-.851v.851h.851v-.851ZM225.788 71.795l-.511-.766 5.195-3.15-5.195-3.407.511-.681 6.301 4.087-6.301 3.917Z" fill="#000"/></svg>